<svg width="48" height="48" viewBox="0 0 48 48" fill="none" xmlns="http://www.w3.org/2000/svg">
<rect width="48" height="48" fill="#323238"/>
<path d="M31.68 13.92H16.32C14.9944 13.92 13.92 14.9944 13.92 16.32V31.68C13.92 33.0056 14.9944 34.08 16.32 34.08H31.68C33.0057 34.08 34.08 33.0056 34.08 31.68V16.32C34.08 14.9944 33.0057 13.92 31.68 13.92ZM20.16 21.6V30.72H17.28V21.6H20.16ZM17.28 18.945C17.28 18.2737 17.8557 17.76 18.72 17.76C19.5844 17.76 20.1263 18.2737 20.16 18.945C20.16 19.6181 19.6219 20.16 18.72 20.16C17.8557 20.16 17.28 19.6181 17.28 18.945ZM30.72 30.72H27.84C27.84 30.72 27.84 26.2744 27.84 25.92C27.84 24.96 27.36 24 26.16 23.9812H26.1225C24.96 23.9812 24.48 24.9694 24.48 25.92C24.48 26.3569 24.48 30.72 24.48 30.72H21.6V21.6H24.48V22.8281C24.48 22.8281 25.4063 21.6 27.2682 21.6C29.175 21.6 30.72 22.9106 30.72 25.5656V30.72Z" fill="white"/>
</svg>
